<svg width="30" height="30" viewBox="0 0 30 30" fill="none" xmlns="http://www.w3.org/2000/svg">
<g id="Group 412">
<g id="Group 413">
<circle id="Ellipse 42" cx="15" cy="15" r="12" fill="#9A998C"/>
<circle id="Ellipse 43" cx="15" cy="15" r="14.5" stroke="#F7E733"/>
<path id="Vector" d="M11.491 10.2209L15 13.3788L18.4908 10.2373C18.5679 10.1634 18.6608 10.1043 18.7639 10.0635C18.867 10.0228 18.9782 10.0012 19.0908 10C19.3319 10 19.5631 10.0862 19.7336 10.2396C19.9041 10.3931 19.9999 10.6011 19.9999 10.8181C20.002 10.9184 19.9813 11.0181 19.9391 11.1109C19.8969 11.2038 19.834 11.2879 19.7544 11.3581L16.2181 14.4997L19.7544 17.6822C19.9042 17.8141 19.9921 17.9927 19.9999 18.1812C19.9999 18.3982 19.9041 18.6063 19.7336 18.7597C19.5631 18.9132 19.3319 18.9994 19.0908 18.9994C18.9749 19.0037 18.8593 18.9863 18.7514 18.9482C18.6434 18.9102 18.5454 18.8524 18.4635 18.7785L15 15.6205L11.5001 18.7703C11.4233 18.8417 11.3315 18.8987 11.2301 18.938C11.1287 18.9773 11.0196 18.9982 10.9092 18.9994C10.6681 18.9994 10.4369 18.9132 10.2664 18.7597C10.0959 18.6063 10.0001 18.3982 10.0001 18.1812C9.99803 18.0809 10.0187 17.9813 10.0609 17.8884C10.1031 17.7956 10.166 17.7115 10.2456 17.6413L13.7819 14.4997L10.2456 11.3172C10.0958 11.1853 10.0079 11.0066 10.0001 10.8181C10.0001 10.6011 10.0959 10.3931 10.2664 10.2396C10.4369 10.0862 10.6681 10 10.9092 10C11.1274 10.0025 11.3365 10.0818 11.491 10.2209Z" fill="#F7E733"/>
</g>
</g>
</svg>
