<svg width="108" height="108" viewBox="0 0 108 108" fill="none" xmlns="http://www.w3.org/2000/svg">
<g id="Group 258">
<path id="Vector" d="M0 25.8898C0.913639 25.2927 0.764009 24.2358 1.08088 23.385C2.99793 18.2344 6.70003 14.5987 11.057 11.4861C16.8293 7.36072 23.3374 4.44016 29.1379 0.371122C29.9036 -0.167894 30.3701 -0.192554 30.7222 0.786834C33.7149 9.01299 36.1653 17.366 34.3997 26.2228C32.3875 36.3284 25.478 41.8014 16.0617 44.581C13.7116 45.275 11.2577 45.6678 8.82656 46.0237C7.94637 46.154 7.50627 46.5151 7.35136 47.2567C4.26717 62.0374 6.7317 75.5339 16.7817 87.771C18.2992 82.2734 19.6987 77.1774 21.1105 72.0937C21.8534 69.4145 22.6949 66.7599 23.3444 64.0613C23.7247 62.4901 24.4676 61.8172 26.1434 61.8207C41.7346 61.8653 57.3263 61.8612 72.9186 61.8084C74.8145 61.8084 75.3937 62.7684 75.8038 64.2745C77.5501 70.7051 79.3141 77.1316 81.0956 83.554C81.2558 84.1335 81.4723 84.6989 81.7399 85.4916C86.4718 78.5672 89.0754 71.1531 89.681 63.0802C90.1721 56.5327 89.9186 49.9676 89.7637 43.4096C89.739 42.3527 89.6493 41.6287 88.38 41.4209C81.4406 40.2812 79.8739 35.9356 79.7436 30.2143C79.7242 29.4146 79.7436 28.6149 79.7436 27.8134C79.7436 27.063 79.77 26.4324 78.6557 26.4271C76.6224 26.4183 76.7985 24.8417 76.8125 23.4872C76.8301 21.9564 77.7086 21.4984 79.1539 21.4597C83.4897 21.3417 83.4879 21.2976 83.4879 16.8904C83.4879 15.1289 83.4879 13.3674 83.4879 11.6059C83.4879 9.86203 84.4491 8.83684 86.088 8.82099C87.6371 8.80866 88.6089 9.86203 88.6546 11.4368C88.7339 14.2341 88.7304 17.0366 88.6687 19.8356C88.6423 21.0246 88.924 21.4738 90.2408 21.5178C96.3686 21.7292 96.3669 21.7768 96.3687 15.7331C96.3687 14.2922 96.3845 12.853 96.3687 11.4121C96.3493 9.70878 97.3668 8.84741 98.8737 8.84565C100.381 8.84389 101.356 9.77748 101.354 11.4438C101.354 14.1636 101.435 16.8869 101.331 19.6031C101.275 21.0669 101.71 21.6852 103.208 21.4949C103.912 21.4051 104.646 21.5072 105.364 21.4738C106.653 21.4174 107.89 21.5249 107.931 23.1824C107.964 24.5247 108.459 26.2826 106.222 26.4359C104.924 26.524 105.246 27.4399 105.204 28.1815C105.086 30.2442 105.292 32.3087 104.736 34.3679C103.68 38.2432 101.185 40.5701 97.3263 41.206C95.4356 41.5283 95.0836 42.3281 95.1716 44.0437C95.5465 51.7943 95.6891 59.573 94.5273 67.2655C91.385 88.0511 76.9234 103.098 57.2969 106.644C55.7989 106.915 54.1599 106.598 52.7833 107.514H44.1469C42.2422 106.473 40.0646 106.612 38.0278 106.138C13.312 100.397 -2.33602 77.3835 1.21643 51.1214C1.58083 48.4334 2.98737 45.8105 2.70923 43.2247C2.3906 40.2636 0.948846 37.4241 0 34.5317V25.8898ZM22.7089 93.0378C28.7066 97.9172 34.8556 100.344 42.2281 99.7315C47.4089 99.2999 47.3966 99.6505 47.0709 94.329C47.0057 93.251 46.6677 93.0149 45.6749 93.0202C38.1897 93.0537 30.7064 93.0378 22.7072 93.0378H22.7089ZM74.341 93.0378H56.5998C51.507 93.0378 51.5405 93.0378 51.8679 98.2272C51.9331 99.2383 52.22 99.5747 53.2305 99.6698C61.073 100.404 68.2553 99.0146 74.3392 93.0378H74.341ZM8.78784 38.6536C12.5392 34.3749 16.3909 30.1773 20.0191 25.7947C24.1032 20.8625 26.9268 13.2018 26.0044 10.1914C20.2814 19.6489 10.7489 26.6402 8.78784 38.6536ZM48.4933 90.0891H52.8062C55.8182 90.0891 55.8182 90.0891 55.6404 86.9889C55.408 82.9515 55.4081 82.9515 51.3416 82.9515H47.9863C42.1629 82.9515 42.221 82.9515 41.5767 88.6975C41.4447 89.8724 41.7228 90.1067 42.7421 90.0961C44.6574 90.0732 46.5762 90.0926 48.4933 90.0926V90.0891ZM63.7206 90.0891C65.0778 90.0891 66.4386 90.0345 67.7923 90.1067C68.8486 90.1631 69.2552 89.8214 69.0246 88.738C68.6884 87.1844 68.3328 85.6272 68.1444 84.0542C68.0265 83.0431 67.4966 82.9392 66.6974 82.9445C64.0568 82.9639 61.4268 82.9815 58.7933 82.9445C57.8796 82.9304 57.605 83.2034 57.561 84.1546C57.3216 89.4796 57.855 90.0979 63.0006 90.0979L63.7206 90.0891ZM33.956 90.0891C39.4519 90.0891 39.4009 90.0891 39.8568 84.7782C39.9765 83.3954 39.8568 82.7824 38.2443 82.9128C36.181 83.081 34.1075 83.081 32.0443 82.9128C30.4317 82.7789 30.0409 83.5593 29.7558 84.8804C28.6291 90.1085 28.5992 90.0926 33.956 90.0926V90.0891ZM70.2023 82.9515C70.7692 85.4176 70.2287 88.5654 71.8236 89.7016C73.378 90.8113 76.2756 90.038 78.5817 90.0891C78.8212 90.0891 79.0623 90.075 79.3017 90.0891C80.2946 90.156 80.666 90.0098 80.3808 88.7627C79.0535 82.9621 79.1099 82.9498 73.1245 82.9498L70.2023 82.9515ZM24.1049 82.9515C20.2321 82.9515 20.2321 82.9515 19.2586 86.5397C18.2992 90.0891 18.2992 90.0891 22.0629 90.0891C26.1839 90.0891 26.1839 90.0891 27.0729 86.5415C27.9707 82.9551 27.9707 82.9551 24.1049 82.9551V82.9515ZM48.8119 80.6193C50.3206 80.6193 51.8345 80.681 53.3378 80.5876C53.9064 80.5524 55.2743 81.1883 54.7796 79.6576C54.4504 78.6447 55.7408 76.6859 53.2093 76.7705C50.5916 76.8603 47.9458 77.0047 45.3527 76.7282C42.8671 76.464 42.8688 78.0986 42.816 79.5765C42.7421 81.6357 44.4004 80.4168 45.2471 80.5665C46.4019 80.7726 47.6201 80.6228 48.8119 80.6228V80.6193ZM60.6628 68.3488C61.3828 68.3488 62.1063 68.2995 62.821 68.3488C64.4951 68.4879 65.3683 68.4034 64.9053 66.1082C64.4758 63.9838 63.9265 62.9639 61.6521 63.3215C60.6381 63.48 59.5766 63.3479 58.538 63.3479C55.3324 63.3479 55.3904 63.3479 55.7584 66.464C55.9344 67.9384 56.4907 68.5778 58.0275 68.3611C58.8901 68.2484 59.7844 68.3523 60.6628 68.3523V68.3488ZM49.1376 68.3488C50.3329 68.3488 51.5282 68.3329 52.7217 68.3488C53.3995 68.3629 53.6582 68.1409 53.7304 67.4046C54.0191 64.4277 53.1107 63.3532 50.1639 63.3532C48.9686 63.3532 47.7592 63.4695 46.5833 63.3215C45.2735 63.1577 44.9584 63.8499 44.7507 64.8892C44.0606 68.347 44.0465 68.3435 47.4652 68.3453C48.0215 68.3523 48.5795 68.3523 49.1376 68.347V68.3488ZM48.7362 74.4189C49.8523 74.4189 50.9736 74.4682 52.0809 74.403C53.0315 74.3484 54.4205 75.0143 54.2497 72.978C54.1265 71.4913 54.123 70.3516 52.0739 70.5471C50.0883 70.7541 48.0865 70.7541 46.1009 70.5471C43.955 70.3023 43.8124 71.53 43.6575 73.0766C43.4304 75.2151 44.9954 74.2815 45.8633 74.396C46.8086 74.514 47.7785 74.4171 48.7362 74.4171V74.4189ZM37.8218 68.3523C38.8552 68.3523 39.8867 68.3523 40.9201 68.3523C41.5873 68.3523 42.3055 68.2871 42.1911 67.3817C42.0256 66.0588 43.1769 64.8188 42.4129 63.5065C42.2369 63.2017 35.1566 63.3303 34.8838 63.5787C34.768 63.6793 34.6842 63.8115 34.6426 63.9592C34.3627 65.3366 33.6673 66.8304 33.9912 68.0529C34.1902 68.8103 36.0174 68.2466 37.1071 68.3576C37.3459 68.3676 37.585 68.3653 37.8236 68.3505L37.8218 68.3523ZM67.2202 80.6246C67.0442 76.7951 67.0442 76.7951 63.3844 76.7951C61.7138 76.7951 60.0396 76.8127 58.3725 76.7951C57.5223 76.7828 56.6526 76.7405 57.0945 78C57.4202 78.9248 56.2442 80.6299 58.4113 80.6299L67.2202 80.6246ZM70.2727 63.362C66.6692 63.362 66.7977 63.3479 67.1586 66.5943C67.4825 69.5149 69.6038 68.2501 70.9522 68.2995C75.1772 68.4545 75.1314 68.3734 73.6967 64.4647C72.9274 62.3826 71.2339 63.8623 70.2622 63.3602L70.2727 63.362ZM32.2713 63.362C30.5356 63.362 29.0252 63.3532 27.5183 63.362C26.0114 63.3708 23.95 66.5855 24.5256 67.963C24.6806 68.3329 24.9816 68.2942 25.2861 68.3594C30.3349 69.4339 31.745 68.4615 32.2643 63.3602L32.2713 63.362ZM61.4462 74.4189C62.2419 74.4189 63.0534 74.3149 63.8297 74.4383C66.1481 74.8064 66.5161 73.9098 65.8594 71.8418C65.5602 70.8941 65.2926 70.5401 64.3244 70.5718C62.4971 70.6299 60.6487 70.7479 58.8408 70.5489C56.5153 70.3005 55.945 71.0932 56.5294 73.2951C56.7653 74.1846 56.9977 74.4735 57.8673 74.433C59.0503 74.3731 60.2456 74.4154 61.4391 74.4171L61.4462 74.4189ZM30.8824 80.6299C33.6761 80.6299 36.3097 80.5471 38.9362 80.6563C41.0627 80.7444 40.5451 79.159 40.7669 78.0476C41.1067 76.3389 39.8005 76.8145 38.9696 76.8039C37.0543 76.7634 35.1302 76.8903 33.2237 76.7546C31.9914 76.6683 31.5003 77.2038 31.2979 78.2607C31.157 78.9582 31.0444 79.6593 30.8754 80.6281L30.8824 80.6299ZM32.2784 74.4171C34.9947 74.4171 37.5278 74.3784 40.061 74.4383C40.9729 74.4594 41.1859 74.1388 41.3672 73.2686C41.9235 70.5771 41.9904 70.5912 39.1773 70.5876H36.7973C33.1181 70.5859 33.1181 70.5859 32.2713 74.4154L32.2784 74.4171ZM69.1813 76.7916C69.5967 80.6299 69.5967 80.6299 73.0981 80.6299H78.08C77.3178 79.2471 78.2191 77.0946 76.0679 76.8497C73.7988 76.5908 71.4839 76.7898 69.1742 76.7898L69.1813 76.7916ZM76.2334 74.4171C75.4923 70.5876 75.4923 70.5876 72.0577 70.5876C71.2638 70.5876 70.4734 70.5595 69.6777 70.5964C68.9736 70.6299 67.8716 70.2582 68.1673 71.6269C68.3979 72.7032 67.8152 74.3801 69.8115 74.4101C71.9345 74.44 74.0646 74.4154 76.2263 74.4154L76.2334 74.4171ZM21.1792 80.6176C22.9396 80.6176 24.6999 80.4062 26.4093 80.6651C29.122 81.0808 29.0692 78.9635 29.1097 77.5667C29.1537 75.9619 27.5482 77.0752 26.7226 76.8127C26.2156 76.6525 25.6171 76.7828 25.0608 76.7828C21.6756 76.781 21.6756 76.781 21.1721 80.6158L21.1792 80.6176ZM22.7635 74.4013H26.5518C30.1219 74.4013 30.1219 74.4013 30.6113 70.5647H27.2666C23.5751 70.5559 23.5751 70.5559 22.76 74.3995L22.7635 74.4013Z" fill="#F7E631"/>
<path id="Vector_2" d="M49.6428 59.0446C45.7242 59.0446 41.8056 59.0446 37.8887 59.0446C36.8994 59.0446 36.1055 59.1397 35.9365 57.6724C35.1003 50.3781 39.709 43.9081 46.9952 42.3474C53.6213 40.9382 60.5396 45.2099 62.5534 51.9687C62.626 52.11 62.6907 52.2553 62.7471 52.4038C63.1203 54.5405 63.7646 56.9978 62.6133 58.7064C61.8775 59.8003 59.4587 58.9865 57.7969 59.0235C55.0806 59.0886 52.3608 59.0446 49.6428 59.0446Z" fill="#F7E631"/>
<path id="Vector_3" d="M30.5733 42.9094C32.0608 43.614 33.6627 44.3186 34.8862 45.5798C35.3386 46.0448 35.2506 46.8463 34.7682 47.3289C34.4162 47.6812 33.9127 48.0723 33.2842 47.7094C31.9903 46.9608 30.6665 46.265 29.3973 45.4776C29.2551 45.4016 29.1297 45.2976 29.0286 45.1719C28.9275 45.0462 28.8528 44.9014 28.8089 44.7462C28.7651 44.591 28.7529 44.4285 28.7732 44.2684C28.7936 44.1084 28.846 43.9541 28.9273 43.8148C29.2459 43.2176 29.7828 42.9129 30.5733 42.9094Z" fill="#F7E631"/>
<path id="Vector_4" d="M42.0816 39.5361C41.9391 40.3059 41.6662 40.8749 41.0254 41.1497C40.3353 41.4509 39.7333 41.169 39.3794 40.586C38.6436 39.3776 37.9712 38.1199 37.3092 36.8745C37.1536 36.5892 37.1069 36.2569 37.1778 35.9397C37.2487 35.6225 37.4325 35.3418 37.6948 35.15C38.1929 34.7607 39.0203 34.6709 39.471 35.1712C40.6364 36.4711 41.3546 38.0653 42.0816 39.5361Z" fill="#F7E631"/>
<path id="Vector_5" d="M62.3829 36.9115C61.8548 38.3207 61.0521 39.943 59.7423 41.2113C59.3058 41.6341 58.5523 41.509 57.9943 41.0211C57.7703 40.8484 57.6141 40.6024 57.5529 40.3261C57.4918 40.0499 57.5296 39.7609 57.6598 39.5097C58.3565 38.1834 59.1203 36.8935 59.9483 35.645C60.2335 35.2134 60.7475 34.8048 61.383 35.1342C61.9552 35.4371 62.4621 35.8194 62.3829 36.9115Z" fill="#F7E631"/>
<path id="Vector_6" d="M65.9046 48.4228C65.1829 48.3717 64.6406 48.1463 64.3995 47.6266C64.0773 46.9379 64.0861 46.1804 64.8097 45.7172C65.9381 44.9932 67.0876 44.2939 68.2794 43.6827C69.0592 43.2828 69.8954 43.4114 70.3654 44.2111C70.8548 45.0496 70.4534 45.77 69.7017 46.2298C68.4272 47.0189 67.1105 47.7323 65.9046 48.4228Z" fill="#F7E631"/>
<path id="Vector_7" d="M69.9472 57.6037C69.6303 57.6037 69.3117 57.6037 68.9948 57.6037C67.8787 57.6143 66.5637 57.7957 66.5743 56.1364C66.5848 54.4771 67.8805 54.655 69.0054 54.6691C69.8856 54.6796 70.7534 54.6849 71.6266 54.6691C72.6634 54.6514 73.3746 55.1323 73.3764 56.1646C73.3781 57.1968 72.6599 57.6654 71.616 57.6055C71.0615 57.5755 70.5034 57.6019 69.9472 57.6037Z" fill="#F7E631"/>
<path id="Vector_8" d="M48.4153 35.4037C48.4153 35.0056 48.4153 34.6092 48.4153 34.2111C48.3889 33.1261 48.3977 32.0286 49.9117 32.0656C51.4256 32.1026 51.364 33.2282 51.3569 34.2922C51.3569 35.0866 51.3393 35.8775 51.3569 36.6755C51.3833 37.7958 51.239 38.8527 49.8095 38.8315C48.3079 38.8104 48.4012 37.646 48.4136 36.5944C48.4206 36.2069 48.4153 35.8 48.4153 35.4037Z" fill="#F7E631"/>
<path id="Vector_9" d="M29.2807 54.0508C30.3634 54.322 32.4846 53.3303 32.5058 55.4952C32.5269 57.5315 30.5183 56.9995 29.161 57.0682C28.7649 57.0893 28.3653 57.0682 27.9675 57.0682C26.8532 57.1052 25.804 56.9696 25.7547 55.5551C25.7019 54.0402 26.8479 54.0561 27.9147 54.0437C28.316 54.0473 28.7174 54.0508 29.2807 54.0508Z" fill="#F7E631"/>
</g>
</svg>
