<svg width="91" height="91" viewBox="0 0 91 91" fill="none" xmlns="http://www.w3.org/2000/svg">
<g id="Layer_1" clip-path="url(#clip0_334_389)">
<path id="Vector" d="M16.2222 0C17.9927 0.791092 19.928 0.864398 21.7931 1.22176C24.8304 1.8021 25.4775 2.54432 24.9403 5.55292C24.7815 6.4387 25.3463 6.6128 25.6943 6.97016C27.3884 8.6959 29.1406 10.3606 30.8836 12.0558C28.7193 13.9953 28.7194 13.9953 26.8115 12.0863C25.2873 10.5652 23.761 9.04309 22.2327 7.51996C20.7552 6.04162 20.7552 6.03857 22.309 4.27923C20.0287 3.81191 17.8736 3.34152 15.7093 2.93529C14.6776 2.7398 15.05 3.52479 15.1354 3.96463C15.517 5.97748 15.9444 7.98422 16.4206 10.2995C17.8095 8.11556 18.826 9.10214 19.9524 10.3453C21.3047 11.8419 22.8188 13.1889 24.2016 14.6581C24.8121 15.3056 26.1491 15.6997 24.7419 17.1016C23.4598 18.3753 22.9958 17.4682 22.2632 16.729C21.2222 15.6752 20.1569 14.6489 19.1312 13.5799C18.5543 12.969 18.0903 12.6636 17.1104 12.969C15.3491 13.5158 14.0579 12.685 13.6641 10.8737C13.1025 8.38741 12.6873 5.87363 12.1653 3.38123C11.8356 1.80821 12.9864 1.0049 13.7923 0.0213831L16.2222 0Z" fill="#D2D2D2"/>
<path id="Vector_2" d="M77.2582 0C78.702 1.30118 79.2454 2.74897 78.6074 4.75572C78.061 6.46313 77.9481 8.30799 77.6123 10.0887C77.1391 12.6147 76.0219 13.4486 73.5402 12.8835C73.3037 12.8059 73.049 12.8036 72.8112 12.8769C72.5733 12.9502 72.3641 13.0955 72.2123 13.2928C71.2599 14.2427 70.3136 15.2018 69.3612 16.1517C67.4137 18.0852 67.4137 18.0821 65.4692 15.8951C67.3373 14.0625 69.2147 12.2299 71.0767 10.3972C72.8014 8.6898 72.7953 8.68063 74.6971 10.0918C75.158 7.71544 75.6129 5.39714 76.0982 2.84976L68.65 4.25479C70.8509 5.782 69.7183 6.80217 68.4424 7.94146C67.0189 9.17847 65.6866 10.5167 64.4557 11.9458C63.134 13.5249 61.9038 14.2122 60.0723 11.9458C61.7268 10.4186 63.4789 8.76921 65.2372 7.14121C65.8752 6.54865 66.2812 6.07828 65.9667 4.97563C65.4234 3.0819 66.2964 2.02508 68.2836 1.47834C70.4449 0.867456 72.7404 0.904105 74.8314 0.00916285L77.2582 0Z" fill="#D2D2D2"/>
<path id="Vector_3" d="M90.9991 35.1837C88.6517 37.5814 85.7395 39.2094 82.9281 40.9596C82.6867 41.124 82.4139 41.2365 82.1269 41.2902C81.8399 41.3439 81.5448 41.3375 81.2604 41.2715C80.9759 41.2055 80.7082 41.0813 80.4741 40.9068C80.24 40.7322 80.0445 40.511 79.9 40.2571C79.1582 38.8062 78.1295 38.6169 76.8474 38.8124C75.2906 39.0506 75.3669 38.1007 75.2662 37.0225C75.1288 35.5533 76.1209 35.9931 76.82 35.9626C77.7601 35.9198 78.7125 36.0328 79.6436 35.9351C81.2004 35.7702 82.3146 35.9962 81.7041 38.4855L88.1847 34.1422L82.1375 30.0004C81.4904 32.6302 81.4659 32.5997 75.9591 32.3675C73.8223 32.279 74.8175 30.5593 74.0879 29.4995C75.2692 29.4995 76.2064 29.4781 77.1405 29.4995C78.218 29.53 79.1155 29.585 79.6802 28.2288C79.8061 27.945 79.9901 27.6908 80.2205 27.4828C80.4509 27.2747 80.7224 27.1175 81.0175 27.0213C81.3126 26.9251 81.6245 26.8921 81.9332 26.9243C82.2418 26.9566 82.5403 27.0535 82.8091 27.2087C85.6785 28.9802 88.7311 30.5532 91.0083 33.1586L90.9991 35.1837Z" fill="#D2D2D2"/>
<path id="Vector_4" d="M45.3609 90.9938C42.3328 90.9938 39.3016 90.9938 36.2704 90.9938C33.0346 90.9786 31.3527 89.4117 31.368 86.2198C31.368 84.6712 31.136 83.5502 29.747 82.4904C27.9399 81.1098 27.8575 77.1543 29.5486 75.4988C30.6323 74.4359 30.7147 73.3607 30.6567 72.0657C30.4657 66.9393 28.796 61.9779 25.8489 57.7802C23.0009 53.6965 20.571 49.3928 19.35 44.4905C15.5068 29.1054 26.3129 13.6959 42.0428 11.6036C55.5504 9.80765 70.2515 18.9556 72.3303 34.9027C73.1362 41.1062 71.674 46.9187 68.2613 52.1906C65.8528 55.9078 63.5664 59.68 61.7562 63.7455C60.3368 66.9373 60.2727 70.2422 60.3704 73.6112C60.392 74.071 60.5834 74.5064 60.9076 74.833C63.484 77.8324 63.2947 80.7188 60.2757 83.3181C59.5431 83.9473 59.7385 84.6346 59.7263 85.3249C59.6591 89.656 58.3435 90.9816 54.0485 90.9816L45.3609 90.9938ZM41.2644 65.5079C41.2644 63.8249 41.2827 62.148 41.2644 60.4559C41.2644 59.3166 41.5086 58.0123 41.0354 57.096C40.6661 56.3813 39.2985 56.9402 38.3828 56.812C37.6196 56.705 37.1098 56.308 37.0915 55.5169C37.0732 54.7258 37.3968 54.1455 38.2362 54.1424C43.0837 54.118 47.9312 54.1241 52.7817 54.1424C53.5143 54.1424 53.8898 54.628 53.96 55.2847C54.0394 56.0392 53.7097 56.6256 52.913 56.7631C52.3837 56.8631 51.8424 56.8826 51.3073 56.8211C50.0283 56.644 49.7261 57.1754 49.7597 58.3972C49.8482 61.5616 49.7413 64.732 49.8085 67.8995C49.8482 69.8909 48.9202 72.6246 50.2023 73.6692C51.4233 74.6711 54.0577 73.8739 56.0602 74.0174C57.3697 74.1121 57.6506 73.6448 57.5529 72.4322C57.156 67.5757 58.6274 63.1682 60.9107 58.9623C62.4156 56.1889 64.0304 53.4826 65.7948 50.8559C69.0191 46.1416 70.3399 40.3807 69.4915 34.7316C67.4554 20.4736 53.0595 11.1638 39.1398 15.046C28.1231 18.1187 21.0625 28.2777 21.4196 38.6688C21.6119 44.3286 23.6175 49.2828 26.7036 53.8247C30.5896 59.5426 33.6024 65.5017 33.4193 72.6307C33.3888 73.825 33.9016 74.0724 34.9761 74.0113C36.5223 73.9166 38.0729 73.9166 39.6191 74.0113C40.895 74.0968 41.3956 73.77 41.3224 72.3833C41.1758 70.0956 41.2644 67.7987 41.2644 65.5079ZM45.6936 76.8092C41.652 76.8092 37.6104 76.8458 33.5689 76.7908C32.1128 76.7695 31.2581 77.1696 31.2214 78.7915C31.1848 80.4134 31.9205 81.0517 33.5353 81.0456C41.5513 81.0049 49.5684 81.0049 57.5864 81.0456C59.0883 81.0456 59.8362 80.5019 59.8301 78.932C59.824 77.362 59.1707 76.7725 57.617 76.7939C53.6425 76.8428 49.6681 76.8031 45.6936 76.8031V76.8092ZM45.5502 83.8343C42.4518 83.8343 39.3473 83.984 36.2643 83.7793C34.2312 83.6449 33.8924 84.4788 34.0451 86.1831C34.1702 87.5912 34.7685 88.2571 36.2154 88.1807C37.2899 88.1227 38.3522 88.1807 39.445 88.1807C44.494 88.1807 49.5429 88.1227 54.5888 88.2113C56.5211 88.2449 56.9057 87.3347 57.0309 85.6395C57.1865 83.6938 56.1151 83.8068 54.8269 83.8343C51.7347 83.8465 48.6455 83.8221 45.5502 83.8221V83.8343ZM44.1033 65.3765C44.1033 67.8689 44.1704 70.3644 44.0788 72.8537C44.027 74.1977 44.842 73.9472 45.6326 73.9991C46.5178 74.0571 46.9666 73.9014 46.9543 72.8232C46.8963 67.9056 46.8811 62.9849 46.9543 58.0673C46.9757 56.812 46.3835 56.8272 45.4922 56.812C44.552 56.812 44.0086 56.8975 44.0636 58.1009C44.1887 60.5231 44.1033 62.9513 44.1033 65.3765Z" fill="#D2D2D2"/>
<path id="Vector_5" d="M71.6038 66.1494L78.9024 67.5483C78.4476 65.0834 78.0172 62.7498 77.5349 60.1505C75.9323 62.3222 74.8608 61.1096 73.7161 59.8023C72.8165 58.7081 71.8081 57.7082 70.7063 56.8181C69.3479 55.798 69.7661 54.9458 70.5415 53.8737C70.9993 53.2414 71.2985 53.2811 71.7625 53.7912C72.312 54.3868 72.8889 54.955 73.4719 55.5109C74.6166 56.5952 75.4286 58.043 77.5898 57.3435C78.8811 56.9251 79.9495 58.101 80.2425 59.5244C80.7615 62.0198 81.3048 64.5153 81.6742 67.0351C81.9794 69.0877 80.4043 70.6546 78.4079 70.3309C75.8957 69.9246 73.4109 69.3565 70.9169 68.8434C69.3723 68.5379 68.3131 67.4628 68.7496 66.0058C69.2838 64.2342 68.2734 63.4798 67.3363 62.4871C66.9059 62.032 66.0542 61.7174 66.3534 60.8988C66.6006 60.233 66.9639 59.4236 67.5042 59.112C68.0445 58.8005 68.4199 59.6984 68.8534 60.0833C69.7447 60.8988 70.5781 61.7846 71.4328 62.6429C73.1026 64.3045 73.1026 64.3045 71.6038 66.1494Z" fill="#D2D2D2"/>
<path id="Vector_6" d="M19.6838 65.3522C17.4036 64.0693 18.1575 63.095 19.4549 61.9923C20.6271 60.9966 21.6405 59.8115 22.7272 58.7058C24.5954 60.8042 24.6259 60.8439 22.7272 62.7468C22.135 63.3576 22.074 63.8189 22.248 64.6344C22.6723 66.6198 21.7809 67.8507 19.7693 68.2691C17.6081 68.7242 15.4377 69.1488 13.2582 69.5245C10.4284 70.0132 8.88692 68.3913 9.43333 65.5782C9.83016 63.5379 10.1934 61.4914 10.5963 59.4541C11.0695 57.0472 12.2172 56.1828 14.5647 56.751C15.34 56.9373 15.6605 56.7021 16.091 56.2745C16.7197 55.5736 17.3905 54.9116 18.0996 54.2922C18.5849 53.9104 18.9909 52.6489 19.7082 53.4492C20.3798 54.1944 21.4604 55.3032 19.8884 56.4883C18.8261 57.2916 17.9713 58.3667 17.0189 59.3167C15.3431 60.9966 15.3431 60.9966 13.5054 59.6068C13.0872 61.6533 12.6904 63.66 12.26 65.6607C12.1013 66.4029 12.1715 66.8824 13.0995 66.6808L19.6838 65.3522Z" fill="#D2D2D2"/>
<path id="Vector_7" d="M9.40112 38.5497C8.79061 36.1062 9.72471 35.7458 11.2876 35.9321C12.2034 36.042 13.168 35.9137 14.1082 35.9657C14.8561 36.0054 15.9062 35.4984 15.8024 37.0958C15.723 38.2992 15.5765 39.0018 14.1418 38.8185C12.9574 38.6658 11.9653 38.7085 11.2296 40.1502C10.5611 41.4544 8.99513 41.6224 7.68558 40.7825C5.48468 39.3775 3.3021 37.9297 1.20499 36.3719C-0.391499 35.1868 -0.409798 33.0823 1.18364 31.8972C3.32044 30.3028 5.5671 28.8153 7.84127 27.4042C9.06229 26.6497 10.6252 26.7933 11.1991 28.0456C11.9744 29.7133 13.168 29.5056 14.4654 29.4995H16.7853C16.886 31.9277 15.778 32.7585 13.5954 32.3645C12.9938 32.2988 12.3868 32.2988 11.7852 32.3645C10.2284 32.4226 8.50979 32.7097 9.38283 29.7225L2.89307 34.1178L9.40112 38.5497Z" fill="#D2D2D2"/>
<path id="Vector_8" d="M45.6764 37.6364C43.6096 37.6807 41.6094 36.9041 40.1135 35.4765C38.6175 34.0489 37.7475 32.0865 37.6939 30.0187C37.584 25.767 41.0701 22.1719 45.3742 22.0956C46.4067 22.0546 47.4369 22.2201 48.4047 22.5825C49.3724 22.9448 50.2582 23.4967 51.0102 24.2057C51.7622 24.9148 52.3652 25.7669 52.784 26.7121C53.2029 27.6572 53.4291 28.6765 53.4494 29.7102C53.4697 30.7439 53.2837 31.7713 52.9023 32.7322C52.5209 33.6931 51.9518 34.5682 51.2283 35.3063C50.5047 36.0444 49.6412 36.6307 48.6885 37.0308C47.7357 37.4309 46.7127 37.6368 45.6795 37.6364H45.6764ZM45.4627 34.8141C46.7791 34.8243 48.0473 34.3187 48.996 33.4055C49.9446 32.4922 50.4985 31.2437 50.5391 29.9271C50.5565 28.5969 50.0451 27.3143 49.1175 26.3615C48.1898 25.4086 46.9218 24.8635 45.5924 24.8461C44.2631 24.8287 42.9813 25.3404 42.029 26.2686C41.0767 27.1968 40.5319 28.4656 40.5145 29.7958C40.5207 31.1132 41.0419 32.376 41.9666 33.3139C42.8914 34.2517 44.1462 34.7902 45.4627 34.8141Z" fill="#D2D2D2"/>
<path id="Vector_9" d="M29.1974 49.4967C29.2341 43.9988 31.2945 39.5119 35.6078 36.0573C36.6274 35.2388 36.8746 36.039 37.2195 36.5919C37.4912 37.0256 38.6787 37.3127 37.6133 38.1191C33.0833 41.4972 31.6608 46.1552 31.9478 51.586C31.9875 52.316 32.6957 53.6996 31.3373 53.8157C30.0582 53.9256 29.4203 52.7314 29.2005 51.534C29.1399 50.8563 29.1389 50.1746 29.1974 49.4967Z" fill="#D2D2D2"/>
<path id="Vector_10" d="M61.8903 49.4264C61.8903 50.7673 62.0948 52.1571 60.9745 53.2231C60.5288 53.6507 59.9611 54.0478 59.3627 53.8339C58.6942 53.6018 59.0758 52.8993 59.0575 52.4198C58.9781 50.6757 59.1399 48.9041 58.9018 47.1876C58.6847 45.4504 58.1184 43.7752 57.237 42.2629C56.3557 40.7506 55.1775 39.4324 53.7735 38.3878C52.986 37.7769 52.7967 37.3982 53.6087 36.7476C54.1764 36.2986 54.3107 35.1074 55.5409 36.1184C59.7657 39.5943 61.8079 44.0293 61.8903 49.4264Z" fill="#D2D2D2"/>
</g>
<defs>
<clipPath id="clip0_334_389">
<rect width="91" height="91" fill="white"/>
</clipPath>
</defs>
</svg>
