<svg width="99" height="90" viewBox="0 0 99 90" fill="none" xmlns="http://www.w3.org/2000/svg">
<g id="Layer_1" clip-path="url(#clip0_334_387)">
<path id="Vector" d="M38.2801 88.2067C36.8265 88.2706 35.6026 87.9369 34.4019 87.6264C18.9761 83.6306 8.23678 74.2606 2.68687 59.3713C-5.16266 38.3186 4.78009 14.2596 25.0958 4.48918C32.0144 1.10644 39.6945 -0.424715 47.3841 0.045683C55.0737 0.516081 62.5091 2.9719 68.962 7.17261C75.4149 11.3733 80.6641 17.1749 84.1955 24.0092C87.7269 30.8434 89.4194 38.476 89.1073 46.1593C89.0869 46.7107 88.9358 46.9806 88.3689 47.085C87.4967 47.2417 86.6448 47.4797 85.7756 47.6857C85.6535 46.0868 85.6535 46.0868 84.0051 46.0868C79.6239 46.0868 75.2398 46.0868 70.8586 46.0868C70.2393 46.0868 69.9632 46.1796 69.937 46.8935C69.8304 49.4131 69.5124 51.9194 68.9863 54.386C68.9532 54.758 68.7895 55.1065 68.5241 55.3697C66.7907 56.8455 65.2712 58.5546 64.0091 60.4479C63.9823 60.5076 63.9337 60.5548 63.8733 60.5802C63.8128 60.6055 63.745 60.6069 63.6835 60.5843C64.9753 57.2304 65.8539 53.7322 66.3 50.1668C66.4425 49.0292 66.4745 47.8772 66.6082 46.7368C66.6722 46.1826 66.4861 46.0694 65.9599 46.0723C62.7009 46.0955 59.4419 46.0723 56.1858 46.0723C53.1564 46.0723 50.13 46.0984 47.1007 46.052C46.3855 46.052 46.2779 46.2754 46.2837 46.9225C46.3128 51.3188 46.2837 55.7179 46.3128 60.1142C46.3128 60.7323 46.1704 60.9122 45.5569 60.8048C44.9334 60.6852 44.2993 60.6288 43.6643 60.6365C43.0364 60.6539 42.9172 60.4073 42.9201 59.8327C42.9491 55.6657 42.9404 51.4987 42.9433 47.3317C42.9317 47.1306 42.9317 46.9291 42.9433 46.7281C43.0131 46.1825 42.7689 46.0665 42.2543 46.0694C35.9398 46.0849 29.6243 46.0849 23.3079 46.0694C22.6537 46.0694 22.5694 46.2928 22.6014 46.8558C22.8745 51.8774 23.9818 56.8188 25.8779 61.4781C26.1686 62.2093 26.1424 62.5488 25.2761 62.6069C24.8444 62.6328 24.421 62.736 24.026 62.9116C23.1131 63.3381 22.7846 62.9522 22.4735 62.1106C20.6914 57.2588 19.5168 52.2822 19.3046 47.1082C19.2726 46.3247 19.0924 46.052 18.2318 46.0636C13.5628 46.1129 8.89091 46.0926 4.21899 46.0781C3.68406 46.0781 3.39623 46.0984 3.44566 46.7948C4.04455 55.303 6.91399 62.9435 12.1674 69.6844C13.0046 70.7552 13.0075 70.7581 14.2024 70.2096C16.1822 69.2927 18.2173 68.5034 20.264 67.7489C20.7204 67.5806 21.0257 67.5516 21.2554 68.0971C21.5097 68.6761 21.8214 69.2282 22.1857 69.7453C22.5491 70.2793 22.6014 70.5404 21.8455 70.7726C19.8823 71.4214 17.9533 72.1691 16.066 73.0128C15.3653 73.303 15.531 73.4945 15.9409 73.8833C20.5334 78.3086 26.0898 81.613 32.1749 83.5377C32.6689 83.6825 33.12 83.9455 33.489 84.3038C34.9804 85.7289 36.5824 87.034 38.2801 88.2067ZM24.3574 22.3789C24.1045 22.2948 23.8922 22.2164 23.6742 22.1526C20.238 21.1286 16.8842 19.8472 13.6413 18.3193C13.1384 18.0813 12.932 18.1713 12.6122 18.5688C7.08843 25.4432 4.06491 33.2869 3.45439 42.0736C3.40496 42.7613 3.74511 42.7236 4.19864 42.7236C8.9258 42.7236 13.6529 42.6975 18.3772 42.7381C19.1302 42.7381 19.2784 42.4856 19.3017 41.824C19.4049 39.2433 19.7367 36.6768 20.2931 34.1545C21.1727 30.0816 22.5371 26.1283 24.3574 22.3789ZM77.8098 42.7149C80.2315 42.7149 82.6532 42.6975 85.0778 42.7294C85.6593 42.7294 85.8017 42.564 85.761 42.0068C85.5807 39.4354 85.1799 36.884 84.5633 34.3808C83.0935 28.5786 80.3675 23.1684 76.5771 18.5311C76.3649 18.2699 76.2253 17.9972 75.7572 18.2235C72.3928 19.8424 68.8963 21.1723 65.3058 22.199C64.8668 22.3238 64.8958 22.4892 65.0616 22.8548C65.5267 23.8385 65.9715 24.8339 66.3785 25.8408C68.474 30.9756 69.6812 36.4282 69.9486 41.9662C69.9835 42.6394 70.219 42.7381 70.8208 42.7294C73.1437 42.6946 75.4782 42.7149 77.8098 42.7149ZM56.4678 42.7149C59.5523 42.7149 62.6369 42.68 65.7215 42.7381C66.5297 42.7526 66.6373 42.503 66.5937 41.7834C66.1996 35.4985 64.5613 29.354 61.7735 23.705C61.4827 23.0928 61.1164 23.3046 60.7356 23.3916C56.243 24.4178 51.6586 24.9914 47.0512 25.1037C46.4698 25.1037 46.2721 25.2459 46.275 25.864C46.2983 31.2382 46.2983 36.6114 46.275 41.9836C46.275 42.5988 46.4465 42.7352 47.0396 42.7294C50.1852 42.7004 53.328 42.7149 56.4678 42.7149ZM32.7215 42.7149C35.8923 42.7149 39.0631 42.7149 42.234 42.7149C42.6235 42.7149 42.9404 42.7671 42.9375 42.1722C42.9181 36.682 42.9181 31.1927 42.9375 25.7044C42.9375 25.2546 42.7892 25.124 42.3561 25.124C37.5985 25.0112 32.8651 24.4123 28.2298 23.3365C27.7937 23.2407 27.628 23.322 27.4478 23.6934C24.6247 29.3899 22.9738 35.5933 22.5927 41.9372C22.5549 42.6017 22.741 42.741 23.3806 42.7352C26.4942 42.6946 29.6078 42.7149 32.7215 42.7149ZM59.8663 20.1706C56.2439 14.0159 51.6912 8.74325 46.2954 3.97555C46.2954 9.85755 46.2954 15.5654 46.2954 21.2733C46.2954 21.7608 46.4756 21.8305 46.8972 21.8131C51.2617 21.6659 55.6033 21.1161 59.8663 20.1706ZM42.9317 3.94944C37.4981 8.78968 32.9308 14.0507 29.3404 20.1735C33.5377 21.0911 37.8071 21.6416 42.1002 21.8189C42.8009 21.8508 42.9404 21.636 42.9375 20.9773C42.9114 15.609 42.9375 10.2406 42.9375 4.87222L42.9317 3.94944ZM51.29 3.86819C51.3132 3.99297 51.3074 4.03069 51.322 4.0481C55.8602 8.49369 59.8431 13.3717 62.9887 18.9025C63.2242 19.3146 63.4829 19.2798 63.8376 19.1927C67.0322 18.2617 70.1606 17.1177 73.2018 15.7686C73.6146 15.5828 73.8211 15.4784 73.3704 15.0402C67.3262 9.15098 59.6191 5.25194 51.2871 3.86819H51.29ZM15.3857 15.4581C18.6481 16.9657 22.0193 18.2267 25.4709 19.2304C25.9796 19.3842 26.1075 19.0679 26.2994 18.7342C28.5647 14.8237 31.2409 11.1651 34.2827 7.82047C35.4776 6.50594 36.7189 5.23204 38.0214 3.85368C29.227 5.36262 21.7816 9.21044 15.3857 15.4581Z" fill="#D2D2D2"/>
<path id="Vector_2" d="M67.581 79.4258C64.8163 77.4323 63.476 74.8264 63.2754 71.6547C62.9556 66.5214 65.1128 62.337 68.5753 58.7503C72.5873 54.5949 77.6226 52.227 83.1434 50.7993C85.0622 50.306 87.0391 50.0216 88.9579 49.4877C93.2374 48.2893 96.7173 45.9736 99.0111 41.8008C99.038 44.4117 98.8894 47.0214 98.5663 49.6125C97.9471 54.4382 96.9645 59.1885 95.1242 63.7124C93.2141 68.4076 90.6063 72.6152 86.5915 75.8391C82.3818 79.2198 77.4918 80.6126 72.1687 80.7868C71.5872 80.8071 71.5204 80.5517 71.4971 80.0961C71.186 74.0313 72.8315 68.6368 77.0034 64.1129C79.9106 60.9702 83.4836 58.82 87.3851 57.1485C89.0277 56.4463 90.6238 55.657 92.0192 54.5224C92.2111 54.3657 92.4612 54.2496 92.5135 53.9681C92.3187 53.8143 92.1821 53.9391 92.0309 54.0203C89.9086 55.123 87.67 55.8978 85.3937 56.6494C77.2534 59.3539 71.4651 64.5075 68.7468 72.7835C68.057 74.9343 67.6648 77.1691 67.581 79.4258Z" fill="#D2D2D2"/>
<path id="Vector_3" d="M64.7754 82.316C56.7195 74.5652 47.707 68.9908 36.177 68.4249C36.2322 68.8457 36.4997 68.7383 36.645 68.7848C45.076 71.3152 52.4575 75.7114 59.2517 81.1842C60.5948 82.2666 61.8682 83.439 63.1793 84.5591C63.4701 84.8144 63.5573 84.9885 63.1793 85.2758C59.1412 88.4678 54.6757 90.4324 49.399 89.9187C45.4801 89.5386 42.0583 87.8875 38.933 85.6037C33.6535 81.7762 29.6589 76.7851 26.115 71.3993C25.0422 69.7685 24.0596 68.0796 23.1235 66.3675C22.8793 65.9207 22.9316 65.7553 23.4433 65.6189C29.6764 63.9851 35.9734 62.7954 42.4566 63.0595C47.8408 63.2771 52.943 64.4639 57.3329 67.8126C57.7205 68.1086 58.0985 68.4191 58.4667 68.7441C59.5017 69.6669 60.2983 70.5897 60.4436 72.1712C60.7053 75.0469 62.0629 77.5192 64.1998 79.5273C64.6969 79.9945 64.883 80.9376 64.7754 82.316Z" fill="#D2D2D2"/>
<path id="Vector_4" d="M57.5684 64.9195C58.9696 64.8934 60.1093 65.3113 61.2751 65.5347C61.5832 65.5956 61.4466 65.8249 61.3943 66.0106C61.2576 66.5358 61.1297 67.064 60.9727 67.6791C59.9211 66.6616 58.7819 65.7381 57.5684 64.9195Z" fill="#D2D2D2"/>
</g>
<defs>
<clipPath id="clip0_334_387">
<rect width="99" height="90" fill="white"/>
</clipPath>
</defs>
</svg>
