<svg width="98" height="98" viewBox="0 0 98 98" fill="none" xmlns="http://www.w3.org/2000/svg">
<g id="Layer_1" clip-path="url(#clip0_334_401)">
<path id="Vector" d="M36.4706 85.2402C36.7552 86.5015 37.2769 87.6916 36.9607 89.0717C36.1702 92.5409 32.2276 94.7467 28.951 93.4715C28.6717 93.3538 28.3719 93.2929 28.0689 93.2922C27.766 93.2915 27.4659 93.3511 27.1861 93.4675C26.9063 93.5839 26.6523 93.7548 26.439 93.9703C26.2256 94.1858 26.0571 94.4417 25.9432 94.723C25.0064 97.0041 23.3148 98.0753 20.8682 97.9862C20.1468 97.9605 19.4176 98.0773 18.7061 97.8931C17.0777 97.4733 15.9038 96.507 15.2319 94.9527C14.5758 93.4339 13.475 92.9844 11.9197 93.5844C9.90989 94.3606 8.12138 93.9804 6.54631 92.529C6.2064 92.2181 5.88624 91.8855 5.55819 91.5528C4.00683 89.9172 3.56614 88.0698 4.45347 85.9451C5.00484 84.6244 4.47917 83.3472 3.17485 82.7987C1.03062 81.8977 -0.0424714 80.2978 -0.00492274 77.9692C0.00891097 77.1771 -0.0701591 76.3673 0.0978217 75.6128C0.471332 73.9396 1.49898 72.7595 3.10962 72.0981C4.50485 71.5239 5.01472 70.2982 4.44358 68.9082C3.57008 66.7815 4.02067 64.9341 5.5819 63.3064C5.85462 63.0233 6.13327 62.7421 6.41983 62.4688C8.0522 60.9164 9.89804 60.4689 12.0245 61.354C13.3426 61.9025 14.645 61.3916 15.1746 60.0867C15.8129 58.5125 16.9038 57.4631 18.554 57.073C19.1468 56.9304 19.2338 56.6433 19.1745 56.1087C18.8949 53.5243 18.881 50.918 19.133 48.3308C19.6967 42.3331 21.6518 36.5504 24.8424 31.4443C25.1882 30.8859 25.293 30.5097 24.6962 30.082C24.3266 29.8167 24.0776 29.3791 23.708 29.1296C21.9156 27.9415 21.9294 26.2901 22.3543 24.4525C23.5005 19.4448 28.0716 15.7856 33.194 15.7955C33.4192 15.7817 33.6445 15.818 33.854 15.9019C34.0635 15.9858 34.2518 16.1151 34.4054 16.2806C35.0833 16.9974 35.8402 17.6429 36.4805 18.3914C36.9252 18.9102 37.2572 18.8587 37.7828 18.53C41.4755 16.1945 45.5514 14.532 49.8221 13.6193C50.3715 13.5045 50.6917 13.2767 50.581 12.649C50.5553 12.3539 50.5553 12.0571 50.581 11.762C50.581 11.1026 50.7411 10.3858 50.5336 9.80164C50.2905 9.12246 49.417 9.44324 48.8478 9.2076C46.7372 8.31259 45.4507 6.06912 45.8835 3.86128C46.0915 2.78612 46.6639 1.81595 47.5036 1.1149C48.3434 0.41384 49.3991 0.0249183 50.4921 0.0139154C55.7897 0.00203471 61.0887 0.00203471 66.389 0.0139154C68.8613 0.0139154 70.9521 1.91879 71.1161 4.27513C71.298 6.89483 69.5866 9.11256 67.0372 9.45116C66.472 9.5264 66.3475 9.68877 66.3692 10.2095C66.4127 11.2273 66.053 12.4411 66.4918 13.2154C66.9305 13.9896 68.3059 13.8332 69.2585 14.1143C72.7573 15.121 76.0985 16.6125 79.1852 18.5458C79.7603 18.9102 80.1101 18.9141 80.5448 18.3716C80.9796 17.829 81.5922 17.439 81.9796 16.8806C82.7701 15.7578 83.8333 15.6925 85.019 15.845C87.7335 16.1651 90.2372 17.4697 92.0575 19.5125C93.8779 21.5553 94.8891 24.1951 94.9003 26.9336C94.9062 27.128 94.8682 27.3212 94.7892 27.4988C94.7101 27.6764 94.592 27.8338 94.4437 27.9593C93.6849 28.688 92.9813 29.4781 92.1948 30.1751C91.7323 30.585 91.7482 30.882 92.0564 31.379C94.7718 35.689 96.5956 40.5014 97.42 45.5309C99.1275 56.0651 97.0366 65.8033 90.9774 74.5693C84.851 83.4264 76.4026 88.9648 65.8198 90.9746C55.6896 92.8973 46.1779 91.0419 37.4014 85.5728C37.1346 85.4065 36.9212 85.1055 36.5457 85.1431L36.4548 85.0144C36.4373 85.0282 36.4234 85.0461 36.4143 85.0665C36.4053 85.0869 36.4014 85.1092 36.4029 85.1315C36.4045 85.1538 36.4115 85.1753 36.4233 85.1943C36.4351 85.2132 36.4513 85.229 36.4706 85.2402ZM35.5694 63.2193C37.3006 65.6746 37.433 66.4865 36.4746 69.3141C36.2769 69.924 36.4983 70.3913 36.684 70.914C36.8698 71.4368 37.0615 71.3318 37.3579 71.019C37.8322 70.516 38.3263 70.0289 38.8204 69.5477C39.4132 68.9735 40.0536 67.9042 40.5753 67.9636C41.2452 68.0349 41.8005 69.0369 42.4389 69.5972C42.8341 69.9477 42.7551 70.1913 42.4151 70.5061C41.6247 71.2546 40.8618 72.0249 40.1089 72.807C39.9785 72.9417 39.603 73.0545 39.8243 73.3199C40.5881 74.2308 41.052 75.3561 41.1523 76.5415C41.1642 76.6504 41.3875 76.7395 41.5219 76.8385C45.8507 79.8574 50.9099 81.6547 56.1698 82.0423C56.8339 82.0938 56.9307 81.8858 56.907 81.3096C56.8635 80.2919 56.8911 79.2701 56.8931 78.2484C56.8931 75.8069 56.8931 75.8247 59.3555 75.8505C59.901 75.8505 60.0828 75.9831 60.069 76.5514C60.0294 78.1652 60.069 79.779 60.0452 81.3908C60.0452 81.8839 60.1322 82.1116 60.6875 82.0245C61.3674 81.9156 62.0709 81.9037 62.7448 81.8047C68.3999 81.009 73.7064 78.5974 78.0291 74.8584C78.4579 74.4941 78.3848 74.3079 78.0291 73.9693C76.6991 72.6961 75.3947 71.3952 73.9738 70.0091C74.6694 69.3675 75.3255 68.821 75.9105 68.1973C76.286 67.8013 76.5034 67.9062 76.8235 68.2369C77.5963 69.0428 78.4045 69.821 79.195 70.613C80.8136 72.2288 80.8334 72.2427 82.2424 70.3913C85.8313 65.6766 87.8925 60.3739 88.3411 54.4513C88.3826 53.8949 88.2719 53.7028 87.685 53.7306C86.6672 53.7781 85.6455 53.7464 84.6238 53.7444C82.108 53.7444 82.1317 53.7444 82.1673 51.2416C82.1673 50.6317 82.4025 50.5644 82.9124 50.5723C84.4598 50.602 86.0072 50.5584 87.5546 50.596C88.1593 50.6099 88.4083 50.5089 88.3451 49.804C88.1854 47.8741 87.8453 45.9635 87.3293 44.0973C86.1584 39.9111 84.0952 36.0293 81.282 32.7195C80.8373 32.1889 80.6041 32.2403 80.1851 32.7017C79.5231 33.4324 78.8018 34.1195 78.0963 34.8006C77.5034 35.359 76.9836 36.4164 76.3354 36.353C75.6872 36.2897 75.1675 35.2957 74.5568 34.759C74.1121 34.3769 74.211 34.1393 74.5864 33.7789C75.7722 32.6383 76.9085 31.4463 78.0963 30.3077C78.454 29.9652 78.4559 29.7771 78.0646 29.486C77.2998 28.9177 76.5884 28.2761 75.8097 27.7276C71.4312 24.6039 66.2903 22.7263 60.9326 22.2942C60.1065 22.2249 60.0235 22.518 60.0591 23.1932C60.1085 24.1456 60.0591 25.102 60.0591 26.0564C60.0591 28.5078 60.0591 28.4761 57.6145 28.4742C56.9564 28.4742 56.8734 28.2464 56.8872 27.6821C56.9208 26.201 56.8338 24.7119 56.9188 23.2387C56.9702 22.3595 56.6738 22.211 55.8852 22.2982C54.5789 22.432 53.2806 22.6356 51.996 22.908C47.2023 23.9611 42.7432 26.1862 39.016 29.385C38.5457 29.781 38.5081 29.9929 38.9785 30.4107C39.7126 31.0713 40.413 31.7686 41.0772 32.4997C41.6405 33.1116 42.757 33.6185 42.6582 34.3274C42.5594 35.0363 41.5515 35.5452 40.9804 36.1788C40.68 36.5134 40.5041 36.4619 40.2215 36.1649C39.431 35.3333 38.5951 34.5333 37.7828 33.7175C36.1564 32.0859 36.1406 32.072 34.7315 33.9155C31.1938 38.4843 29.0695 43.9914 28.621 49.7565C28.5597 50.497 28.7969 50.6297 29.4609 50.5921C30.449 50.5366 31.4371 50.5802 32.4252 50.5782C34.8205 50.5782 34.7967 50.5782 34.7967 52.9662C34.7967 53.6454 34.5754 53.7702 33.9647 53.7583C32.3837 53.7187 30.8027 53.7583 29.2217 53.7306C28.704 53.7207 28.5676 53.8553 28.6012 54.386C28.7564 56.4815 29.1394 58.5537 29.7435 60.5659C29.8067 60.7857 29.785 61.1322 30.2079 61.0352C31.9529 60.6392 33.3837 61.3322 34.7691 62.4886C34.7954 61.9251 34.7914 61.3606 34.7572 60.7976C34.6861 60.164 34.9331 60.0313 35.524 60.0471C37.0714 60.0887 38.6208 60.0115 40.1642 60.0828C40.9666 60.1224 41.1128 59.8551 41.1089 59.1105C41.0792 53.4157 41.1089 47.7209 41.0733 42.0261C41.0733 41.234 41.3025 41.0677 42.0476 41.0816C44.6127 41.1264 47.1819 41.1264 49.7549 41.0816C50.4683 41.0677 50.6008 41.2796 50.5988 41.9548C50.5691 47.2536 50.581 52.5524 50.581 57.8532C50.581 60.0709 50.581 60.0313 52.8161 60.0867C53.6224 60.1085 53.7608 59.8471 53.7588 59.1105C53.7311 51.3089 53.7588 43.5072 53.7213 35.7055C53.7213 34.9036 53.9564 34.7491 54.6975 34.763C57.2311 34.8086 59.7666 34.8185 62.3001 34.763C63.1084 34.7452 63.2428 35.0066 63.2408 35.7432C63.2151 43.0835 63.225 50.4238 63.225 57.7641C63.225 60.0927 63.225 60.059 65.5669 60.0927C66.2981 60.1026 66.4028 59.859 66.3988 59.2056C66.3692 54.6295 66.3989 50.0535 66.3613 45.4794C66.3495 44.5468 66.4957 44.1923 67.5471 44.2339C69.9778 44.3329 72.4185 44.2993 74.8592 44.2458C75.6497 44.2299 75.9046 44.3725 75.8947 45.2359C75.8453 49.8436 75.8947 54.4533 75.8532 59.061C75.8532 59.8432 75.9698 60.1659 76.8413 60.0947C77.9204 60.0056 79.0152 60.0729 80.0982 60.0729C82.195 60.0729 82.1515 60.0729 82.2147 62.1282C82.2404 62.9896 82.0527 63.2609 81.1219 63.2589C65.966 63.2094 50.826 63.2193 35.5694 63.2193ZM26.2021 60.6887C26.3119 60.4469 26.3218 60.1715 26.2297 59.9224C24.963 54.8889 24.9906 49.8475 26.0894 44.7883C29.87 27.391 47.7787 15.8529 65.1993 19.6131C83.4479 23.5536 94.8113 41.1627 90.8667 59.3917C86.1613 81.1453 61.1737 92.125 41.9152 80.8859C41.101 80.4107 40.5318 80.0226 40.0358 81.2245C39.8026 81.7948 39.1741 82.1017 38.6247 82.5195C38.9488 82.7393 39.2334 82.9551 39.5397 83.1373C47.9526 88.1589 56.9465 89.6915 66.5234 87.545C85.4518 83.3056 98.252 64.445 93.9774 44.5191C89.8846 25.4367 71.6201 13.1203 52.3339 16.4014C42.0179 18.1538 33.9549 23.5516 28.1566 32.2205C23.4136 39.3232 21.546 47.216 22.3306 55.7265C22.4017 56.5186 22.5163 57.2274 23.5163 57.4552C23.961 57.5561 24.3542 57.9581 24.7258 58.2749C25.453 58.8907 25.7851 59.7877 26.2021 60.6887ZM7.92968 69.8269C7.6787 72.0447 6.94156 73.999 4.67481 74.8941C3.44361 75.3812 3.14124 76.2247 3.13927 77.4326C3.13729 78.6404 3.42978 79.4741 4.65703 79.981C5.94153 80.521 6.96258 81.5454 7.49981 82.8331C8.03704 84.1208 8.04737 85.5686 7.52852 86.8639C7.0562 88.0163 7.33088 88.8242 8.18067 89.6737C9.05614 90.5508 9.87036 90.9845 11.145 90.4657C12.4367 89.9492 13.8788 89.9595 15.1629 90.4946C16.4471 91.0297 17.4713 92.047 18.0164 93.329C18.4789 94.4418 19.2022 94.8378 20.3682 94.8398C21.6152 94.8398 22.5598 94.6418 23.1033 93.2992C24.1803 90.638 27.3384 89.3568 29.9945 90.4617C31.2118 90.9667 32.0162 90.5706 32.8679 89.7133C33.7197 88.8559 34.0754 88.0955 33.5873 86.9193C33.3191 86.2731 33.1808 85.5802 33.1802 84.8804C33.1796 84.1805 33.3168 83.4874 33.5839 82.8407C33.851 82.1941 34.2427 81.6065 34.7367 81.1117C35.2307 80.6169 35.8172 80.2246 36.4627 79.9572C37.7097 79.4503 37.9528 78.585 37.9508 77.393C37.9488 76.2009 37.6742 75.4128 36.4805 74.9198C35.1777 74.382 34.1408 73.3487 33.597 72.0463C33.0532 70.7439 33.0469 69.2786 33.5794 67.9716C34.0359 66.8568 33.777 66.0647 32.949 65.2449C32.0893 64.3816 31.2929 63.8688 30.0083 64.4034C28.7178 64.9401 27.2681 64.9458 25.9734 64.4191C24.6787 63.8925 23.6433 62.8759 23.0914 61.5896C22.6092 60.4451 21.8741 60.0313 20.6686 60.0313C19.3998 60.0313 18.4947 60.2927 17.9651 61.6154C16.9908 64.039 13.9157 65.4885 11.5106 64.54C9.92964 63.9123 8.92373 64.2905 7.90597 65.4746C7.26962 66.2112 7.06211 66.9122 7.46131 67.8013C7.77506 68.4299 7.93558 69.1241 7.92968 69.8269ZM56.8991 48.9288C56.8991 51.9227 56.8991 54.9173 56.8991 57.9126C56.8991 60.065 56.8991 60.0333 59.0986 60.0729C59.8377 60.0867 60.0867 59.9343 60.0867 59.1303C60.0492 52.8118 60.067 46.4952 60.065 40.1767C60.065 37.9154 60.065 37.9431 57.7666 37.9173C57.0967 37.9173 56.8813 38.046 56.8911 38.7609C56.9208 42.1508 56.8991 45.5388 56.8991 48.9288ZM58.48 3.16626C55.9841 3.16626 53.4881 3.16626 50.9901 3.16626C49.7747 3.16626 49.0138 3.79396 49.0138 4.75036C49.0138 5.70676 49.7787 6.32257 51.0019 6.32257C55.9939 6.32257 60.9866 6.32257 65.9799 6.32257C67.1953 6.32257 67.9561 5.69487 67.9561 4.73848C67.9561 3.78208 67.1854 3.17022 65.9661 3.16824C63.4602 3.16032 60.9642 3.16626 58.4682 3.16626H58.48ZM44.2511 52.2554V57.6868C44.2511 60.0907 44.2511 60.063 46.6226 60.0768C47.2688 60.0768 47.4348 59.9046 47.4289 59.265C47.4012 55.0533 47.4151 50.8416 47.4151 46.6299C47.4151 44.1903 47.4151 44.2121 44.9428 44.2418C44.3815 44.2418 44.2353 44.4022 44.2412 44.9527C44.2689 47.3902 44.2511 49.8198 44.2511 52.2554ZM72.6952 53.8395V49.7881C72.6952 47.3863 72.6952 47.412 70.3237 47.3981C69.6794 47.3981 69.5095 47.5625 69.5154 48.208C69.551 51.3663 69.5352 54.5246 69.5332 57.6829C69.5332 60.1164 69.5332 60.0966 71.9995 60.0729C72.5549 60.0729 72.7149 59.9224 72.7051 59.364C72.6754 57.5225 72.6971 55.679 72.6971 53.8355L72.6952 53.8395ZM89.8272 28.1237C90.3509 27.5673 90.8035 27.0425 91.3055 26.5713C91.4427 26.4592 91.5438 26.309 91.5962 26.1396C91.6486 25.9701 91.6499 25.789 91.5999 25.6188C90.9833 22.617 89.262 20.5557 86.4064 19.4409C85.191 18.9656 84.0744 18.8646 83.2444 20.1577C83.0472 20.4094 82.8283 20.6433 82.5902 20.8566C85.2931 22.9691 87.7246 25.4087 89.8292 28.1197L89.8272 28.1237ZM25.4017 25.8446C25.2732 26.1376 25.4511 26.3297 25.6467 26.5198C26.0202 26.8901 26.4115 27.2445 26.7534 27.6405C27.0657 28.0009 27.2494 27.989 27.5439 27.6049C29.4356 25.2009 31.6063 23.0313 34.0102 21.1418C34.1288 21.0487 34.2928 20.9279 34.3047 20.8052C34.3363 20.5081 32.526 19.0587 32.198 19.0805C28.9372 19.2923 25.6013 22.6031 25.4036 25.8406L25.4017 25.8446ZM58.5176 9.49076C57.7627 9.49076 57.0058 9.47294 56.2489 9.49076C55.4366 9.5165 54.3734 9.14028 53.8774 9.63729C53.3813 10.1343 53.8201 11.1996 53.7153 12.0134C53.6106 12.8273 53.9347 12.9421 54.6382 12.855C57.088 12.5616 59.5632 12.5503 62.0156 12.8213C63.2013 12.948 63.2013 12.9461 63.2013 11.7045C63.2013 11.1798 63.1657 10.6491 63.2131 10.1204C63.2606 9.59175 63.0531 9.46304 62.5491 9.47492C61.2171 9.51056 59.8634 9.48878 58.5196 9.4868L58.5176 9.49076Z" fill="#D2D2D2"/>
<path id="Vector_2" d="M36.472 85.2401C36.453 85.2286 36.4371 85.2126 36.4256 85.1934C36.4142 85.1743 36.4076 85.1527 36.4064 85.1304C36.4053 85.1082 36.4095 85.0859 36.4189 85.0657C36.4283 85.0455 36.4424 85.0279 36.4602 85.0144L36.5511 85.1431C36.5254 85.1768 36.4997 85.2104 36.472 85.2401Z" fill="#D2D2D2"/>
<path id="Vector_3" d="M31.6046 77.4305C31.612 79.6283 30.9674 81.7787 29.7527 83.6086C28.538 85.4386 26.808 86.8657 24.7823 87.7086C22.7566 88.5515 20.5265 88.7723 18.3753 88.3429C16.2242 87.9135 14.2489 86.8533 12.7002 85.2968C11.1516 83.7404 10.0995 81.758 9.67746 79.6013C9.25546 77.4446 9.4826 75.2109 10.33 73.1838C11.1775 71.1567 12.607 69.4276 14.4371 68.2162C16.2672 67.0047 18.4153 66.3654 20.6088 66.3795C23.5284 66.3874 26.3258 67.5553 28.3872 69.627C30.4486 71.6987 31.6056 74.5051 31.6046 77.4305ZM20.5376 69.5437C16.2294 69.5437 12.6326 73.1594 12.6326 77.4642C12.6484 81.7314 16.2057 85.3035 20.4783 85.3411C24.751 85.3787 28.411 81.7769 28.4288 77.4682C28.4466 73.1594 24.8577 69.5437 20.5514 69.5437H20.5376Z" fill="#D2D2D2"/>
<path id="Vector_4" d="M25.2808 77.4325C25.2919 78.6775 24.8107 79.8762 23.9423 80.7667C23.0739 81.6572 21.889 82.1671 20.6465 82.1848C17.9154 82.2046 15.8028 80.1433 15.8008 77.4524C15.7997 76.8283 15.9214 76.2101 16.1588 75.6331C16.3962 75.0562 16.7447 74.5317 17.1844 74.0897C17.6241 73.6476 18.1463 73.2967 18.7214 73.0569C19.2964 72.8171 19.913 72.6932 20.5359 72.6921C21.1587 72.6911 21.7757 72.813 22.3515 73.0509C22.9274 73.2887 23.4508 73.6379 23.892 74.0785C24.3331 74.519 24.6834 75.0423 24.9227 75.6185C25.162 76.1947 25.2857 76.8124 25.2868 77.4365L25.2808 77.4325ZM22.1188 77.391C22.1097 77.08 22.0087 76.7788 21.8286 76.5254C21.6486 76.272 21.3976 76.0778 21.1073 75.9674C20.8171 75.857 20.5007 75.8354 20.1981 75.9052C19.8956 75.975 19.6206 76.1332 19.4078 76.3597C19.195 76.5862 19.054 76.8709 19.0028 77.1776C18.9515 77.4844 18.9922 77.7996 19.1198 78.0832C19.2473 78.3668 19.456 78.6061 19.7193 78.7708C19.9826 78.9356 20.2888 79.0184 20.5991 79.0087C21.0077 78.9763 21.3896 78.7927 21.6706 78.4937C21.9515 78.1947 22.1113 77.8016 22.1188 77.391Z" fill="#D2D2D2"/>
</g>
<defs>
<clipPath id="clip0_334_401">
<rect width="98" height="98" fill="white"/>
</clipPath>
</defs>
</svg>
