<svg width="43" height="43" viewBox="0 0 43 43" fill="none" xmlns="http://www.w3.org/2000/svg">
<g id="lucide:pointer">
<g id="Group">
<g id="Group 157">
<path id="Vector" d="M39.4167 25.0833C39.4167 28.8847 37.9066 32.5304 35.2185 35.2184C32.5305 37.9065 28.8848 39.4166 25.0833 39.4166M32.25 19.7083V17.9166C32.25 16.9662 31.8725 16.0548 31.2005 15.3828C30.5285 14.7108 29.617 14.3333 28.6667 14.3333C27.7163 14.3333 26.8049 14.7108 26.1329 15.3828C25.4609 16.0548 25.0833 16.9662 25.0833 17.9166V16.1249C25.0833 15.1746 24.7058 14.2631 24.0338 13.5911C23.3618 12.9191 22.4504 12.5416 21.5 12.5416C20.5496 12.5416 19.6382 12.9191 18.9662 13.5911C18.2942 14.2631 17.9167 15.1746 17.9167 16.1249V17.9166M17.9167 17.0208V7.16659C17.9167 6.21623 17.5391 5.30479 16.8671 4.63279C16.1951 3.96078 15.2837 3.58325 14.3333 3.58325C13.383 3.58325 12.4715 3.96078 11.7995 4.63279C11.1275 5.30479 10.75 6.21623 10.75 7.16659V25.0833" stroke="#F7E733" stroke-width="2" stroke-linecap="round" stroke-linejoin="round"/>
<path id="Vector_2" d="M32.2503 19.7083C32.2503 18.758 32.6279 17.8465 33.2999 17.1745C33.9719 16.5025 34.8833 16.125 35.8337 16.125C36.784 16.125 37.6955 16.5025 38.3675 17.1745C39.0395 17.8465 39.417 18.758 39.417 19.7083V25.0833C39.417 28.8848 37.9069 32.5305 35.2189 35.2185C32.5309 37.9066 28.8851 39.4167 25.0837 39.4167H21.5003C16.4837 39.4167 13.4378 37.8758 10.7683 35.2242L4.31826 28.7742C3.70182 28.0914 3.37152 27.1978 3.39578 26.2783C3.42003 25.3587 3.79697 24.4838 4.44856 23.8345C5.10014 23.1852 5.97645 22.8114 6.89606 22.7904C7.81567 22.7694 8.70814 23.1028 9.38868 23.7217L12.542 26.875" stroke="#F7E733" stroke-width="2" stroke-linecap="round" stroke-linejoin="round"/>
</g>
</g>
</g>
</svg>
